<?xml version="1.0" standalone="no"?>
<!DOCTYPE svg PUBLIC "-//W3C//DTD SVG 20010904//EN"
 "http://www.w3.org/TR/2001/REC-SVG-20010904/DTD/svg10.dtd">
<svg version="1.0" xmlns="http://www.w3.org/2000/svg"
 width="210.000000pt" height="245.000000pt" viewBox="0 0 210.000000 245.000000"
 preserveAspectRatio="xMidYMid meet">

<g transform="translate(0.000000,245.000000) scale(0.100000,-0.100000)"
fill="#000000" stroke="none">
<path d="M0 1225 l0 -1225 1050 0 1050 0 0 1225 0 1225 -436 0 c-407 -1 -435
-2 -430 -18 6 -16 5 -16 -8 1 -12 16 -54 17 -620 17 l-606 0 0 -1225z m1080
1185 c0 -5 -2 -10 -4 -10 -2 0 -13 -3 -23 -6 -15 -5 -16 -4 -3 6 13 10 11 11
-7 7 -13 -3 -23 -1 -23 4 0 5 14 9 30 9 17 0 30 -4 30 -10z m19 -46 c3 -4 -2
-5 -11 -1 -9 3 -19 0 -22 -8 -3 -9 0 -12 8 -9 7 3 13 -1 13 -8 0 -7 14 -39 30
-72 25 -48 31 -55 36 -37 3 11 11 21 17 21 9 0 9 -4 3 -12 -19 -25 -23 -47 -7
-41 19 7 18 -6 -3 -30 -10 -11 -12 -17 -5 -13 8 5 19 1 28 -10 14 -18 15 -18
5 1 -7 17 -6 21 8 21 24 0 27 -46 3 -47 -15 -1 -16 -2 0 -6 24 -6 19 -75 -5
-79 -9 -1 -17 3 -17 9 0 7 -4 5 -10 -3 -13 -21 -189 -22 -208 0 -8 8 -11 10
-8 3 10 -19 -14 -27 -39 -13 -22 12 -41 60 -25 60 4 0 11 7 14 16 5 14 4 15
-9 4 -8 -7 -15 -8 -15 -3 0 10 62 69 70 66 3 -1 6 10 6 23 2 20 -1 23 -12 13
-8 -6 -11 -15 -8 -20 3 -5 0 -9 -6 -9 -6 0 -8 12 -5 30 4 22 1 32 -10 36 -8 4
-15 12 -15 19 0 19 52 14 58 -5 5 -13 3 -13 -11 -1 -18 15 -22 5 -7 -19 8 -12
11 -12 28 3 10 9 22 14 26 10 4 -4 4 0 0 10 -3 9 -11 17 -18 17 -6 0 -4 5 4
10 9 6 11 13 5 18 -5 4 -11 19 -12 34 -2 25 1 27 28 24 16 -2 32 1 35 5 6 10
53 4 63 -7z m156 6 c17 -8 16 -8 -7 -7 -16 1 -28 5 -28 9 0 10 9 9 35 -2z
m-105 -22 c0 -12 -3 -18 -7 -14 -11 10 -12 36 -2 36 5 0 9 -10 9 -22z m30 7
c0 -8 -4 -15 -10 -15 -5 0 -10 7 -10 15 0 8 5 15 10 15 6 0 10 -7 10 -15z
m-64 -14 c-4 -5 -1 -11 6 -13 8 -3 6 -7 -5 -11 -12 -5 -17 -1 -17 13 0 11 5
20 11 20 5 0 8 -4 5 -9z m-156 -31 c0 -5 -4 -10 -9 -10 -6 0 -13 5 -16 10 -3
6 1 10 9 10 9 0 16 -4 16 -10z m215 -40 c3 -5 -1 -10 -9 -10 -9 0 -16 -5 -16
-11 0 -5 -4 -7 -10 -4 -6 4 -5 11 3 20 14 17 24 18 32 5z m84 -1 c5 7 8 1 8
-16 0 -22 -5 -28 -23 -28 -12 0 -20 3 -18 7 2 3 -1 8 -7 10 -5 2 -7 11 -3 21
5 14 9 15 21 5 11 -9 16 -9 22 1z m-399 -69 c0 -5 -2 -10 -4 -10 -3 0 -8 5
-11 10 -3 6 -1 10 4 10 6 0 11 -4 11 -10z"/>
<path d="M1000 2316 c0 -8 4 -17 9 -20 5 -4 7 3 4 14 -6 23 -13 26 -13 6z"/>
<path d="M915 2040 c3 -5 10 -10 16 -10 5 0 9 5 9 10 0 6 -7 10 -16 10 -8 0
-12 -4 -9 -10z"/>
<path d="M981 2046 c7 -7 149 -10 156 -3 3 4 -31 7 -77 7 -46 0 -81 -2 -79 -4z"/>
</g>
</svg>
